<?xml version="1.0" encoding="UTF-8"?>
<svg id="SVGDoc" width="1170" height="4727" xmlns="http://www.w3.org/2000/svg" version="1.1" xmlns:xlink="http://www.w3.org/1999/xlink" xmlns:avocode="https://avocode.com/" viewBox="0 0 1170 4727"><defs></defs><desc>Generated with Avocode.</desc><g><g opacity="0.1"><title>12 Col Grid</title><path d="M0.00098,0h69.99999v4726.99972h-69.99999zM169.99999,0v4726.99972h-70.00008l0.00103,-4726.99972zM269.99995,0v4726.99972h-69.99999l0.00103,-4726.99972zM370.00095,0l-0.00197,4726.99972h-69.99999l0.00197,-4726.99972zM470.00099,0l-0.00206,4726.99972h-69.99999l0.00197,-4726.99972zM569.99898,0v4726.99972h-69.99999l0.00197,-4726.99972zM599.99895,0h69.99999v4726.99972h-69.99999zM699.99891,0h70.00008v4726.99972h-70.00008zM799.99896,0h69.99999v4726.99972h-69.99999zM899.99892,0h69.99999v4726.99972h-69.99999zM999.99897,0h69.99999v4726.99972h-69.99999zM1099.99893,0h69.99999v4726.99972h-69.99999z" fill="#fc43db" fill-opacity="1"></path></g></g></svg>