<svg xmlns="http://www.w3.org/2000/svg" width="30" height="26" viewBox="0 0 30 26"><g><g><path fill="#2c3233" d="M14.313 25.32l.232-.218-.233.214c-3.847-3.848-7.276-7.19-9.765-10.032C2.072 12.427.463 10.137.426 8.03c0-.037-.003-.09.004-.158A7.465 7.465 0 0 1 7.889.445a7.445 7.445 0 0 1 6.746 4.308l.166.356.006-.01.162-.348C16.159 2.21 18.732.445 21.72.445c4.123.008 7.449 3.338 7.457 7.43l.004.16c-.037 2.104-1.65 4.394-4.123 7.251-2.487 2.838-5.907 6.173-9.749 10.014a.35.35 0 0 0-.027.03l-.433.47-.477-.424c-.033-.03-.053-.053-.06-.057zM1.726 7.94v.02l-.001.07c-.038 1.362 1.35 3.633 3.798 6.398 2.348 2.681 5.61 5.88 9.282 9.543 3.676-3.672 6.931-6.865 9.275-9.541 2.451-2.763 3.84-5.035 3.803-6.396 0-.038-.002-.073-.004-.13a6.164 6.164 0 0 0-6.158-6.161A6.164 6.164 0 0 0 16.145 5.3l-.162.35-.093.195-.02.034a1.26 1.26 0 0 1-1.065.593 1.28 1.28 0 0 1-1.12-.682c-.005-.013-.032-.058-.062-.132l-.166-.357a6.145 6.145 0 0 0-5.566-3.558 6.165 6.165 0 0 0-6.163 6.161zM14.83 5.18l.008.017-.008-.018z"/></g></g></svg>