<svg xmlns="http://www.w3.org/2000/svg" width="31" height="28" viewBox="0 0 31 28"><g><g><path fill="#2c3233" d="M30.162 11.866v.132c0 .166-.021.321-.055.453-.182.742-.675 1.342-1.38 1.86v9.01a4.373 4.373 0 0 1-4.36 4.359H6.413a4.371 4.371 0 0 1-4.36-4.36v-9.009c-.705-.516-1.2-1.117-1.382-1.856a1.985 1.985 0 0 1-.054-.457c0-.026 0-.048.003-.066-.003-.018-.003-.04-.003-.066V8.412C.62 6.492 1.961 4.819 3.792 4.8h5.956V2.142A1.962 1.962 0 0 1 11.707.183h7.367a1.962 1.962 0 0 1 1.957 1.96V4.8h5.957c1.83.02 3.173 1.692 3.176 3.612zM10.977 4.8h8.826V2.142a.736.736 0 0 0-.729-.727h-7.367a.734.734 0 0 0-.728.727zm16.386 10.303c-.242.114-.487.224-.75.331-1.082.428-2.377.784-3.824 1.064a35.805 35.805 0 0 1-3.732.508v1.311a1.54 1.54 0 0 1-1.539 1.538H13.26a1.54 1.54 0 0 1-1.538-1.538v-1.311c-2.99-.254-5.613-.804-7.556-1.572-.26-.106-.506-.215-.744-.327-.043-.021-.096-.04-.138-.061v8.274a3.148 3.148 0 0 0 3.129 3.127h17.954a3.146 3.146 0 0 0 3.128-3.127v-8.274c-.042.02-.09.038-.132.057zm-14.41 3.214c0 .164.143.307.307.308h4.258a.316.316 0 0 0 .308-.308v-3.026a.315.315 0 0 0-.308-.308H13.26a.315.315 0 0 0-.308.308zM3.791 6.032c-.987.002-1.944 1.004-1.944 2.38l-.001 3.419.006.063v.065a1.676 1.676 0 0 0-.006.065c.003.044.011.098.024.165.066.421.592.998 1.545 1.537l.191.102c.08.042.161.084.248.123a7.799 7.799 0 0 0 .764.337c1.397.556 3.252 1 5.379 1.288.557.075 1.13.14 1.724.191v-.476a1.54 1.54 0 0 1 1.538-1.54h4.258a1.54 1.54 0 0 1 1.539 1.54v.476c.73-.063 1.436-.144 2.109-.243 1.966-.289 3.682-.715 4.994-1.236a9.058 9.058 0 0 0 .78-.343c.076-.037.148-.072.217-.11.072-.036.144-.075.212-.113.95-.538 1.475-1.115 1.54-1.537.013-.068.02-.122.023-.167a.617.617 0 0 1-.004-.09c0-.037 0-.063.004-.081V8.412c-.003-1.376-.958-2.378-1.944-2.38z"/></g></g></svg>