<svg xmlns="http://www.w3.org/2000/svg" width="27" height="27" viewBox="0 0 27 27"><g><g><path fill="#fff" d="M26.225 13.497a13.052 13.052 0 0 1-2.238 7.326 13.227 13.227 0 0 1-1.596 1.936 12.993 12.993 0 0 1-1.939 1.595c-.698.477-1.447.883-2.225 1.213a13.235 13.235 0 0 1-5.1 1.027 13.207 13.207 0 0 1-5.098-1.027 12.881 12.881 0 0 1-2.225-1.213 12.949 12.949 0 0 1-1.94-1.595 13.553 13.553 0 0 1-1.597-1.936 13.136 13.136 0 0 1-1.972-4.69 13.266 13.266 0 0 1 0-5.273 13.052 13.052 0 0 1 1.972-4.687 13.428 13.428 0 0 1 1.597-1.936 13.081 13.081 0 0 1 1.94-1.6A12.91 12.91 0 0 1 10.489.665a13.264 13.264 0 0 1 5.277 0 12.896 12.896 0 0 1 4.687 1.973 13.126 13.126 0 0 1 3.534 3.535c.475.699.88 1.447 1.21 2.224a13.05 13.05 0 0 1 1.028 5.1zm-4.458-7.105c-.024.03-1.815 2.624-6.232 4.427.259.533.51 1.076.743 1.623.081.192.163.385.241.576 3.843-.484 7.628.333 7.791.366a11.147 11.147 0 0 0-2.543-6.992zm-8.64-4.08c-.907 0-1.787.11-2.636.314.17.222 2.27 3.014 4.182 6.527 4.22-1.582 5.814-4.006 5.844-4.05a11.141 11.141 0 0 0-7.39-2.792zm-2.713.331c.021-.002.034-.006.034-.006v-.001a.12.12 0 0 1-.034.007zm-.001 0h0zm-8.233 8.55c.297.001 4.958.06 10.327-1.368-1.934-3.44-4.005-6.246-4.15-6.443a11.203 11.203 0 0 0-6.177 7.81zm2.628 9.779l-.003-.006s3.06-5.434 9.095-7.383c.15-.045.294-.092.443-.131a35.997 35.997 0 0 0-.908-1.902c-5.758 1.722-11.288 1.597-11.486 1.593-.003.118-.009.233-.009.354 0 2.871 1.088 5.49 2.868 7.475zM17.493 23.8c-.164-.98-.813-4.406-2.39-8.494a.405.405 0 0 0-.073.019c-6.633 2.315-8.777 6.99-8.777 6.99s-.082-.057-.2-.153a11.151 11.151 0 0 0 7.075 2.523c1.55 0 3.025-.319 4.365-.885zM6.002 22.12zm18.17-6.846c-.232-.076-3.36-1.066-6.97-.49 1.465 4.033 2.063 7.317 2.176 7.988a11.167 11.167 0 0 0 4.795-7.498z"/></g></g></svg>