<svg xmlns="http://www.w3.org/2000/svg" width="27" height="22" viewBox="0 0 27 22"><g><g><path fill="#fff" d="M26.146 3.157c-.959.426-1.99.715-3.074.842a5.357 5.357 0 0 0 2.355-2.963 10.755 10.755 0 0 1-3.4 1.303 5.356 5.356 0 0 0-9.125 4.883C8.45 7 4.506 4.866 1.863 1.626a5.362 5.362 0 0 0 1.658 7.152 5.355 5.355 0 0 1-2.427-.674v.07a5.362 5.362 0 0 0 4.297 5.25 5.345 5.345 0 0 1-1.413.186c-.343 0-.68-.03-1.005-.095a5.358 5.358 0 0 0 5 3.72 10.746 10.746 0 0 1-7.928 2.217 15.163 15.163 0 0 0 8.21 2.406c9.85 0 15.237-8.16 15.237-15.236 0-.23-.006-.463-.017-.693a10.907 10.907 0 0 0 2.671-2.772z"/></g></g></svg>