<svg xmlns="http://www.w3.org/2000/svg" width="26" height="26" viewBox="0 0 26 26"><g><g><path fill="#fff" d="M25.994 17.147v3.817a4.747 4.747 0 0 1-4.746 4.746H4.755a4.75 4.75 0 0 1-4.75-4.746v-3.817a4.75 4.75 0 0 1 4.75-4.75h16.493a4.748 4.748 0 0 1 4.746 4.75zM8.219 14.073H3.674v1.297h1.533v7.619h1.48v-7.62h1.532zm4.333 2.338h-1.315v4.994c-.122.145-.26.264-.408.356-.148.093-.27.138-.367.138-.122 0-.213-.035-.268-.11-.052-.066-.085-.177-.085-.333v-5.045H8.796v5.5c0 .392.078.684.233.879.155.199.382.295.685.295.247 0 .5-.068.765-.211a2.81 2.81 0 0 0 .758-.606v.721h1.315zm4.768 1.57c0-.54-.107-.95-.326-1.232-.222-.277-.539-.418-.956-.418-.203 0-.404.053-.605.158a1.943 1.943 0 0 0-.563.455v-2.871h-1.331v8.916h1.331v-.508c.169.203.358.354.563.45.198.095.427.142.687.142.388 0 .688-.123.892-.373.206-.248.308-.605.308-1.07zm4.56.202c0-.628-.16-1.104-.483-1.436-.324-.334-.788-.5-1.39-.5-.59 0-1.064.18-1.437.539-.373.357-.56.826-.56 1.397v2.953c0 .634.173 1.132.508 1.488.338.365.801.54 1.392.54.655 0 1.149-.165 1.475-.505.332-.344.495-.85.495-1.523v-.338h-1.352v.298c0 .39-.044.637-.13.75-.088.114-.24.172-.459.172-.207 0-.358-.068-.445-.2-.088-.135-.126-.374-.126-.722v-1.238h2.512zm-1.488-.602c.09.113.136.313.136.588v.664h-1.16v-.664c0-.275.041-.475.135-.588.09-.123.241-.184.448-.184.201 0 .35.06.44.184zm-4.563-.035c.093.117.137.283.137.508v3.396c0 .21-.038.36-.114.455-.076.092-.192.137-.352.137a.767.767 0 0 1-.321-.07 1.174 1.174 0 0 1-.309-.233v-4.1a.934.934 0 0 1 .272-.2.614.614 0 0 1 .276-.065c.178 0 .314.059.411.172zM6.913 6.22L4.93.29h1.678l1.08 3.926h.108L8.826.29h1.694L8.58 6.038v4.076H6.913zm4.31 3.528c-.388-.365-.583-.853-.583-1.47V4.521c0-.562.198-1.007.597-1.34.4-.328.936-.498 1.606-.498.614 0 1.115.176 1.509.528.387.35.584.804.584 1.355v3.74c0 .62-.19 1.104-.573 1.46-.387.353-.915.529-1.588.529-.643 0-1.165-.182-1.552-.547zm.941-1.33c0 .197.052.347.157.459.105.107.253.162.451.162a.68.68 0 0 0 .479-.164.598.598 0 0 0 .178-.457V4.468a.474.474 0 0 0-.182-.381c-.12-.1-.28-.147-.475-.147a.65.65 0 0 0-.442.147.497.497 0 0 0-.166.38zm4.233 1.474c-.171-.216-.26-.537-.26-.97V2.868h1.477v5.553c0 .172.035.299.097.373.058.078.16.117.3.117.108 0 .248-.053.414-.154.166-.1.317-.23.454-.389v-5.5h1.483v7.246H18.88v-.803c-.268.295-.554.52-.85.678-.295.15-.58.23-.857.23-.344 0-.6-.11-.775-.326z"/></g></g></svg>