<svg xmlns="http://www.w3.org/2000/svg" width="15" height="31" viewBox="0 0 15 31"><g><g><path fill="#2c3233" d="M15.035 17.258v10.995A2.743 2.743 0 0 1 12.3 30.99H2.79a2.743 2.743 0 0 1-2.738-2.738V17.258H.07c.247-3.997 3.176-7.243 6.936-7.536v-.248c.031-.178-.26-.645-.434-.696L3.055 7.053A2.248 2.248 0 0 1 1.86 5.132v-1.34c.001-.88.711-1.587 1.59-1.59h5.544a1.829 1.829 0 0 1 1.774-1.4l1.407-.001c1.01.003 1.829.822 1.83 1.832v1.409a1.834 1.834 0 0 1-1.83 1.83h-1.407a1.832 1.832 0 0 1-1.832-1.83v-.478H3.45a.235.235 0 0 0-.225.228v1.34c-.033.177.26.646.433.696l3.517 1.727A2.253 2.253 0 0 1 8.37 9.474v.27c3.62.434 6.41 3.618 6.648 7.514zM10.3 4.042c0 .25.216.466.468.467l1.407-.001a.477.477 0 0 0 .468-.466v-1.41a.476.476 0 0 0-.468-.465h-1.407a.474.474 0 0 0-.468.466zM6.888 15.483a.472.472 0 0 0-.466.466v1.41c0 .25.214.463.466.466h1.409a.477.477 0 0 0 .465-.467V15.95a.472.472 0 0 0-.465-.466zm6.777 3.14v-.685c.001-.11.007-.15.007-.15h-.001c-.002-3.445-2.343-6.215-5.301-6.661v2.998a1.83 1.83 0 0 1 1.756 1.824v1.41a1.833 1.833 0 0 1-1.83 1.83H6.889a1.833 1.833 0 0 1-1.83-1.83v-1.41a1.83 1.83 0 0 1 1.83-1.83h.118v-3.032c-3.093.304-5.584 3.144-5.588 6.702-.002 0 .004.04.007.15v.683h-.007v9.63c.002.752.622 1.373 1.373 1.375h9.508a1.386 1.386 0 0 0 1.372-1.374v-9.63z"/></g></g></svg>