<svg xmlns="http://www.w3.org/2000/svg" width="28" height="25" viewBox="0 0 28 25"><g><g><path fill="#fff" d="M27.197 10.822v1.135a.548.548 0 0 1-.55.549h-3.979v3.984a.55.55 0 0 1-.55.547h-1.135a.547.547 0 0 1-.55-.547v-3.984h-3.98a.551.551 0 0 1-.554-.549v-1.135c0-.303.251-.549.554-.549h3.98v-3.98a.55.55 0 0 1 .55-.55h1.134c.303 0 .551.247.551.55v3.98h3.978a.55.55 0 0 1 .551.55zM15.951 18.76c0 2.359-1.794 4.404-4.57 5.209-.889.26-1.853.386-2.861.386-1.126 0-2.208-.127-3.213-.382-1.952-.495-3.397-1.426-4.068-2.63a3.335 3.335 0 0 1-.436-1.652c0-.588.138-1.19.419-1.78 1.065-2.28 3.886-3.814 7.007-3.814h.09a2.77 2.77 0 0 1-.376-1.396c0-.24.03-.486.096-.736-3.275-.077-5.725-2.473-5.725-5.637 0-2.232 1.784-4.406 4.335-5.285A7.045 7.045 0 0 1 8.96.644h7.002a.55.55 0 0 1 .322.994l-1.566 1.137a.546.546 0 0 1-.323.104h-.563c.726.867 1.15 2.103 1.15 3.496 0 1.531-.778 2.982-2.187 4.09-1.093.847-1.134 1.08-1.134 1.568.012.268.775 1.135 1.611 1.729 1.953 1.378 2.68 2.736 2.68 4.998zm-6.723-8.608h.026c.568 0 1.052-.224 1.425-.648.583-.668.842-1.762.69-2.924-.273-2.07-1.754-3.799-3.3-3.842h-.061c-.551 0-1.037.223-1.411.647-.577.658-.822 1.699-.67 2.859.274 2.07 1.786 3.861 3.302 3.908zm3.823 8.893c0-.196-.024-.393-.073-.594-.205-.799-.933-1.295-2.035-2.045-.154-.105-.308-.213-.474-.324a5.383 5.383 0 0 0-1.503-.23H8.9c-2.383 0-4.471 1.445-4.471 3.09 0 1.792 1.789 3.195 4.076 3.195 3.015 0 4.545-1.041 4.545-3.092z"/></g></g></svg>