<svg xmlns="http://www.w3.org/2000/svg" width="1150" height="449" viewBox="0 0 1150 449"><defs><mask id="gg7wb" width="2" height="2" x="-1" y="-1"><path fill="#fff" d="M598 355h543v79H598z"/><path d="M1140.773 433.244H598.491V355.23h542.282z"/></mask><filter id="gg7wa" width="581" height="123" x="579" y="336" filterUnits="userSpaceOnUse"><feOffset dy="6" in="SourceGraphic" result="FeOffset1029Out"/><feGaussianBlur in="FeOffset1029Out" result="FeGaussianBlur1030Out" stdDeviation="3.6 3.6"/></filter><mask id="gg7wd" width="2" height="2" x="-1" y="-1"><path fill="#fff" d="M598 257h543v79H598z"/><path d="M1140.773 335.728H598.491v-78.012h542.282z"/></mask><filter id="gg7wc" width="581" height="123" x="579" y="238" filterUnits="userSpaceOnUse"><feOffset dy="6" in="SourceGraphic" result="FeOffset1057Out"/><feGaussianBlur in="FeOffset1057Out" result="FeGaussianBlur1058Out" stdDeviation="3.6 3.6"/></filter><mask id="gg7wf" width="2" height="2" x="-1" y="-1"><path fill="#fff" d="M598 101h543v138H598z"/><path d="M1140.773 238.213H598.491V101.69h542.282z"/></mask><filter id="gg7we" width="581" height="182" x="579" y="82" filterUnits="userSpaceOnUse"><feOffset dy="6" in="SourceGraphic" result="FeOffset1085Out"/><feGaussianBlur in="FeOffset1085Out" result="FeGaussianBlur1086Out" stdDeviation="3.6 3.6"/></filter><mask id="gg7wh" width="2" height="2" x="-1" y="-1"><path fill="#fff" d="M598 3h543v79H598z"/><path d="M1140.773 81.236H598.491V3.223h542.282z"/></mask><filter id="gg7wg" width="581" height="123" x="579" y="-16" filterUnits="userSpaceOnUse"><feOffset dy="6" in="SourceGraphic" result="FeOffset1118Out"/><feGaussianBlur in="FeOffset1118Out" result="FeGaussianBlur1119Out" stdDeviation="3.6 3.6"/></filter></defs><g><g><g><g><g><g filter="url(#gg7wa)"><path fill="none" d="M1140.773 433.244H598.491V355.23h542.282z" mask="url(&quot;#gg7wb&quot;)"/><path fill="#23272f" fill-opacity=".1" d="M1140.773 433.244H598.491V355.23h542.282z"/></g><path fill="#fff" d="M1140.773 433.244H598.491V355.23h542.282z"/></g><g><g><text dominant-baseline="text-before-edge" style="line-height:27.24325px" fill="#233148" font-family="'WorkSans-SemiBold','WorkSans-SemiBold'" font-size="15" font-style="none" font-weight="400" transform="translate(675 387)"><tspan style="font-kerning:normal">Flat and Modern Ui &amp;amp; Ux</tspan></text></g></g><g><path fill="#2c3233" d="M637.02 399.597l-.92-.918 13.213-13.213-2.19-2.189a.665.665 0 0 0-.479-.197.67.67 0 0 0-.478.197l-13.93 13.931-.919-.92 13.929-13.93a1.974 1.974 0 0 1 1.398-.577c.504 0 1.012.192 1.397.577l5.298 5.297a1.98 1.98 0 0 1 0 2.793l-13.933 13.932-.918-.92 13.933-13.93h-.001c.13-.13.197-.3.197-.48a.67.67 0 0 0-.196-.477l-2.189-2.188zm-1.18 5.596c.264.268.474.586.481 1.008a1.05 1.05 0 0 1-.433.843c-.25.182-.53.258-.828.284l-5.268.451a2.012 2.012 0 0 1-.153.006h-.005c-.47 0-.911-.182-1.226-.497-.318-.315-.5-.76-.497-1.23 0-.058.002-.117.008-.17l.45-5.25c.027-.298.1-.578.283-.829.174-.25.514-.44.844-.432.422.007.74.218 1.009.481z"/></g></g><g><g><g filter="url(#gg7wc)"><path fill="none" d="M1140.773 335.728H598.491v-78.012h542.282z" mask="url(&quot;#gg7wd&quot;)"/><path fill="#23272f" fill-opacity=".1" d="M1140.773 335.728H598.491v-78.012h542.282z"/></g><path fill="#fff" d="M1140.773 335.728H598.491v-78.012h542.282z"/></g><g><g><text dominant-baseline="text-before-edge" style="line-height:27.24325px" fill="#233148" font-family="'WorkSans-SemiBold','WorkSans-SemiBold'" font-size="15" font-style="none" font-weight="400" transform="translate(677 289)"><tspan style="font-kerning:normal">Fully Support Avaliable</tspan></text></g></g><g><path fill="#2c3233" d="M654.162 291.866v.132c0 .166-.021.321-.055.453-.182.742-.675 1.342-1.38 1.86v9.01a4.373 4.373 0 0 1-4.36 4.359h-17.954a4.371 4.371 0 0 1-4.36-4.36v-9.009c-.705-.516-1.2-1.117-1.382-1.856a1.985 1.985 0 0 1-.054-.457c0-.026 0-.048.003-.066-.003-.018-.003-.04-.003-.066v-3.454c.003-1.92 1.344-3.593 3.175-3.612h5.956v-2.658a1.962 1.962 0 0 1 1.959-1.959h7.367a1.962 1.962 0 0 1 1.957 1.96v2.657h5.957c1.83.02 3.173 1.692 3.176 3.612zm-19.185-7.066h8.826v-2.658a.736.736 0 0 0-.729-.727h-7.367a.734.734 0 0 0-.728.727zm16.386 10.303c-.242.114-.487.224-.75.331-1.082.428-2.377.784-3.824 1.064a35.805 35.805 0 0 1-3.732.508v1.311a1.54 1.54 0 0 1-1.539 1.538h-4.258a1.54 1.54 0 0 1-1.538-1.538v-1.311c-2.99-.254-5.613-.804-7.556-1.572-.26-.106-.506-.215-.744-.327-.043-.021-.096-.04-.138-.061v8.274a3.148 3.148 0 0 0 3.129 3.127h17.954a3.146 3.146 0 0 0 3.128-3.127v-8.274c-.042.02-.09.038-.132.057zm-14.41 3.214c0 .164.143.307.307.308h4.258a.316.316 0 0 0 .308-.308v-3.026a.315.315 0 0 0-.308-.308h-4.258a.315.315 0 0 0-.308.308zm-9.161-12.285c-.987.002-1.944 1.004-1.944 2.38l-.001 3.419.006.063v.065a1.676 1.676 0 0 0-.006.065c.003.044.011.098.024.165.066.421.592.998 1.545 1.537l.191.102c.08.042.161.084.248.123a7.799 7.799 0 0 0 .764.337c1.397.556 3.252 1 5.379 1.288.557.075 1.13.14 1.724.191v-.476a1.54 1.54 0 0 1 1.538-1.54h4.258a1.54 1.54 0 0 1 1.539 1.54v.476c.73-.063 1.436-.144 2.109-.243 1.966-.289 3.682-.715 4.994-1.236a9.058 9.058 0 0 0 .78-.343c.076-.037.148-.072.217-.11.072-.036.144-.075.212-.113.95-.538 1.475-1.115 1.54-1.537.013-.068.02-.122.023-.167a.617.617 0 0 1-.004-.09c0-.037 0-.063.004-.081v-3.435c-.003-1.376-.958-2.378-1.944-2.38z"/></g></g><g><g><g filter="url(#gg7we)"><path fill="none" d="M1140.773 238.213H598.491V101.69h542.282z" mask="url(&quot;#gg7wf&quot;)"/><path fill="#23272f" fill-opacity=".1" d="M1140.773 238.213H598.491V101.69h542.282z"/></g><path fill="#33d2fd" d="M1140.773 238.213H598.491V101.69h542.282z"/></g><g><g><text dominant-baseline="text-before-edge" style="line-height:27.24325px" fill="#fff" font-family="'WorkSans','WorkSans-Regular'" font-size="14" font-style="none" font-weight="400" transform="translate(676 169)"><tspan style="font-kerning:normal">Cras ultricies ligula sed magna dictum porta. Nulla porttitor accumsan tincidunt. Vestibulum ac diam.</tspan></text></g></g><g><g><text dominant-baseline="text-before-edge" style="line-height:27.24325px" fill="#233148" font-family="'WorkSans-SemiBold','WorkSans-SemiBold'" font-size="15" font-style="none" font-weight="400" transform="translate(682 136)"><tspan style="font-kerning:normal">Free of Use</tspan></text></g></g><g><path fill="#2c3233" d="M652.035 146.258v10.995a2.743 2.743 0 0 1-2.736 2.738h-9.508a2.743 2.743 0 0 1-2.738-2.738v-10.995h.017c.247-3.997 3.176-7.243 6.936-7.536v-.248c.031-.178-.26-.645-.434-.696l-3.517-1.725a2.248 2.248 0 0 1-1.195-1.921v-1.34c.001-.88.711-1.587 1.59-1.59h5.544a1.829 1.829 0 0 1 1.774-1.4l1.407-.001c1.01.003 1.829.822 1.83 1.832v1.409a1.834 1.834 0 0 1-1.83 1.83h-1.407a1.832 1.832 0 0 1-1.832-1.83v-.478h-5.487a.235.235 0 0 0-.225.228v1.34c-.033.177.26.646.433.696l3.517 1.727a2.253 2.253 0 0 1 1.196 1.919v.27c3.62.434 6.41 3.618 6.648 7.514zm-4.735-13.216c0 .25.216.466.468.467l1.407-.001a.477.477 0 0 0 .468-.466v-1.41a.476.476 0 0 0-.468-.465h-1.407a.474.474 0 0 0-.468.466zm-3.412 11.441a.472.472 0 0 0-.466.466v1.41c0 .25.214.463.466.466h1.409a.477.477 0 0 0 .465-.467v-1.409a.472.472 0 0 0-.465-.466zm6.777 3.14v-.685c.001-.11.007-.15.007-.15h-.001c-.002-3.445-2.343-6.215-5.301-6.661v2.998a1.83 1.83 0 0 1 1.756 1.824v1.41a1.833 1.833 0 0 1-1.83 1.83h-1.408a1.833 1.833 0 0 1-1.83-1.83v-1.41a1.83 1.83 0 0 1 1.83-1.83h.118v-3.032c-3.093.304-5.584 3.144-5.588 6.702-.002 0 .004.04.007.15v.683h-.007v9.63c.002.752.622 1.373 1.373 1.375h9.508a1.386 1.386 0 0 0 1.372-1.374v-9.63z"/></g></g><g><g><g filter="url(#gg7wg)"><path fill="none" d="M1140.773 81.236H598.491V3.223h542.282z" mask="url(&quot;#gg7wh&quot;)"/><path fill="#23272f" fill-opacity=".1" d="M1140.773 81.236H598.491V3.223h542.282z"/></g><path fill="#fff" d="M1140.773 81.236H598.491V3.223h542.282z"/></g><g><g><text dominant-baseline="text-before-edge" style="line-height:27.24325px" fill="#233148" font-family="'WorkSans-SemiBold','WorkSans-SemiBold'" font-size="15" font-style="none" font-weight="400" transform="translate(680 35)"><tspan style="font-kerning:normal">Made With Love</tspan></text></g></g><g><path fill="#2c3233" d="M644.313 55.32l.232-.218-.233.214c-3.847-3.848-7.276-7.19-9.765-10.032-2.475-2.857-4.084-5.147-4.121-7.254 0-.037-.003-.09.004-.158a7.465 7.465 0 0 1 7.459-7.427 7.445 7.445 0 0 1 6.746 4.308l.166.356.006-.01.162-.348c1.19-2.54 3.763-4.306 6.752-4.306 4.123.008 7.449 3.338 7.457 7.43l.004.16c-.037 2.104-1.65 4.394-4.123 7.251-2.487 2.838-5.907 6.173-9.749 10.014a.35.35 0 0 0-.027.03l-.433.47-.477-.424c-.033-.03-.053-.053-.06-.057zm-12.587-17.38v.02l-.001.07c-.038 1.362 1.35 3.633 3.798 6.398 2.348 2.681 5.61 5.88 9.282 9.543 3.676-3.672 6.931-6.865 9.275-9.541 2.451-2.763 3.84-5.035 3.803-6.396 0-.038-.002-.073-.004-.13a6.164 6.164 0 0 0-6.158-6.161 6.164 6.164 0 0 0-5.577 3.557l-.16.35-.094.195-.02.034a1.26 1.26 0 0 1-1.065.593 1.28 1.28 0 0 1-1.12-.682c-.005-.013-.032-.058-.062-.132l-.166-.357a6.145 6.145 0 0 0-5.566-3.558 6.165 6.165 0 0 0-6.163 6.161zm13.104-2.76l.008.017-.008-.018z"/></g></g></g><g><g><path fill="#33d2fd" d="M453.695 349.687c0 2.75-2.25 5-5 5h-190c-2.75 0-5-2.25-5-5v-40c0-2.75 2.25-5 5-5h190c2.75 0 5 2.25 5 5z"/></g><g><g><text dominant-baseline="text-before-edge" style="line-height:27.24325px" fill="#fff" font-family="'WorkSans-SemiBold','WorkSans-SemiBold'" font-size="15" font-style="none" font-weight="400" transform="translate(300 320)"><tspan style="font-kerning:normal">Download Free</tspan></text></g></g><g><g><text dominant-baseline="text-before-edge" style="line-height:27.24325px" fill="#6a6d89" font-family="'WorkSans','WorkSans-Regular'" font-size="14" font-style="none" font-weight="400" transform="translate(0 151)"><tspan style="font-kerning:normal">Cras ultricies ligula sed magna dictum porta. Nulla porttitor accumsan tincidunt. Vestibulum ac diam sit amet quam vehicula elementum sed sit amet dui. Curabitur aliquet quam id dui posuere blandit. Curabitur aliquet quam id dui posuere blandit. Vestibulum ac diam sit amet quam.</tspan></text></g></g><g><g><text dominant-baseline="text-before-edge" style="line-height:60px" fill="#233148" font-family="'WorkSans','WorkSans-Bold'" font-size="30" font-style="none" font-weight="700" transform="translate(195 72)"><tspan style="font-kerning:normal">Stable And Ready</tspan></text></g></g></g></g></g></svg>